<svg height="512pt" viewBox="0 0 512.00106 512" width="512pt" xmlns="http://www.w3.org/2000/svg"><path d="m496.992188 422h-50.566407v-183.65625h15c8.28125 0 15-6.71875 15-15v-45h20.574219c6.710938 0 12.605469-4.457031 14.433594-10.914062 1.828125-6.457032-.855469-13.34375-6.570313-16.859376l-241-148.34375c-4.820312-2.96875-10.902343-2.96875-15.726562 0l-241 148.34375c-5.714844 3.519532-8.394531 10.402344-6.566407 16.859376 1.828126 6.457031 7.71875 10.914062 14.429688 10.914062h20.578125v45c0 8.28125 6.714844 15 15 15h15v183.65625h-50.5625c-8.285156 0-15 6.714844-15 15v59.996094c0 8.285156 6.714844 15 15 15h481.976563c8.285156 0 15-6.714844 15-15v-59.996094c0-8.285156-6.714844-15-15-15zm-240.992188-389.386719 188.015625 115.730469h-376.03125zm-190.421875 145.730469h380.847656v30h-380.847656zm350.847656 60v183.65625h-30v-183.65625zm-60 0v183.65625h-55.425781v-183.65625zm-85.425781 0v183.65625h-30v-183.65625zm-60 0v183.65625h-55.425781v-183.65625zm-85.425781 0v183.65625h-30v-183.65625zm356.417969 243.652344h-451.976563v-30h451.976563zm0 0"/><path d="m266.199219 88.226562h-20.398438c-8.28125 0-15 6.714844-15 15 0 8.285157 6.71875 15 15 15h20.398438c8.28125 0 15-6.714843 15-15 0-8.285156-6.714844-15-15-15zm0 0"/></svg>